<svg width="121" height="27" viewBox="0 0 121 27" fill="" xmlns="http://www.w3.org/2000/svg"><path d="M53.353 2.476h-5.21v4.95h5.21v-4.95zM53.353 8.702h-5.21v17.55h5.21V8.701zM12.471 8.697l-3.528 11.59-3.695-11.57L0 8.72 6.183 26.25h5.6L17.65 8.697H12.47zM69.284 12.976V8.703H54.843v4.274h8.327l-8.327 9.084v4.191H69.88V22.06h-8.515l7.919-9.083zM40.85 11.44V8.702h-5.1v17.55h5.099v-7.887c.15-4.52 3.925-4.92 3.925-4.92h1.73V8.701h-1.88c-1.61 0-3.135 1.849-3.773 2.738zM25.61 8.1c-4.861 0-8.802 4.23-8.802 9.45 0 5.22 3.94 9.45 8.802 9.45 3.68 0 7.293-2.398 8.606-5.84l-4.888-.027c-.757 1.22-1.994 2.004-3.85 1.912-1.826-.092-3.367-1.744-3.807-4.106h12.643c.063-.452.096-.916.096-1.388 0-5.22-3.939-9.45-8.8-9.45zm-3.77 7.351c.59-1.998 1.997-3.402 3.64-3.402 1.644 0 3.05 1.407 3.64 3.402h-7.28z"></path> <path d="M79.165 8.1c-5.2 0-9.417 4.23-9.417 9.45 0 5.22 4.216 9.45 9.417 9.45 5.2 0 9.416-4.23 9.416-9.45 0-5.22-4.215-9.45-9.416-9.45zm.056 14.889c-2.177 0-3.944-2.426-3.944-5.418 0-2.993 1.767-5.418 3.944-5.418 2.18 0 3.945 2.425 3.945 5.418 0 2.99-1.766 5.418-3.945 5.418zM106.202 14.747c-.024-5.575-4.294-7.035-7.451-6.3-1.876.437-3.232 1.796-3.881 2.577V8.702h-5.042v17.55h5.042V15.616c1.09-3.215 3.407-3.404 4.828-2.527 1.252.774 1.442 2.531 1.442 2.531v10.632h5.062V14.746zM106.2 8.7l4.095 8.85h2.233L120.567 0h-2.717l-6.514 14.1-2.345-5.4H106.2z"></path></svg>