<svg width="62" height="23" viewBox="0 0 83 31" fill="" xmlns="http://www.w3.org/2000/svg" aria-hidden="true" focusable="false"><path fill-rule="evenodd" clip-rule="evenodd" d="M11.485 2.295C6.15 8.668 1.035 16.567.981 22.468c-.021 2.223.675 4.16 2.35 5.631 2.408 2.114 5.06 2.86 7.7 2.866 3.862.005 7.69-1.576 10.693-2.8 5.055-2.053 60.911-26.71 60.911-26.71.54-.274.438-.615-.237-.444-.27.07-60.809 16.741-60.809 16.741-1.166.335-2.36.505-3.52.51-4.656.028-8.793-2.595-8.76-8.129.016-2.157.664-4.764 2.176-7.838z"></path></svg>