<svg width="39" height="57" viewBox="0 0 39 57" fill="" xmlns="http://www.w3.org/2000/svg" aria-hidden="true" focusable="false"><g clip-path="url(#logo-figma-clip0)"><path opacity="0.9" d="M10.2229 56.5994C15.4093 56.5994 19.6185 52.3901 19.6185 47.2037V37.8081H10.2229C5.03651 37.8081 0.827271 42.0173 0.827271 47.2037C0.827271 52.3901 5.03651 56.5994 10.2229 56.5994Z"></path> <path opacity="0.7" d="M0.827271 28.4125C0.827271 23.2261 5.03651 19.0169 10.2229 19.0169H19.6185V37.8081H10.2229C5.03651 37.8081 0.827271 33.5989 0.827271 28.4125Z"></path> <path opacity="0.6" d="M0.828247 9.62124C0.828247 4.43486 5.03749 0.225616 10.2239 0.225616H19.6195V19.0169H10.2239C5.03749 19.0169 0.828247 14.8076 0.828247 9.62124Z"></path> <path opacity="0.8" d="M19.6184 0.225616H29.014C34.2004 0.225616 38.4097 4.43486 38.4097 9.62124C38.4097 14.8076 34.2004 19.0169 29.014 19.0169H19.6184V0.225616Z"></path> <path opacity="0.9" d="M38.4097 28.4125C38.4097 33.5989 34.2004 37.8081 29.014 37.8081C23.8276 37.8081 19.6184 33.5989 19.6184 28.4125C19.6184 23.2261 23.8276 19.0169 29.014 19.0169C34.2004 19.0169 38.4097 23.2261 38.4097 28.4125Z"></path></g> <defs><clipPath id="logo-figma-clip0"><rect x="0.823486" y="0.225616" width="37.59" height="56.3738"></rect></clipPath></defs></svg>