<svg width="171" height="46" viewBox="0 0 171 46" fill="" xmlns="http://www.w3.org/2000/svg" aria-hidden="true" focusable="false"><path d="M165.503616,18.0126987 C168.82168,18.0126987 171,20.5470745 171,25.2557436 C171,29.4102071 169.180283,32.4849901 165.564918,32.4849901 C163.955786,32.4849901 162.88512,31.5072312 162.275761,30.5426737 L162.187808,30.3982129 L162.187808,36 L157.187864,36 L157.187864,18.3313859 L160.850992,18.3313859 C160.850992,18.3313859 161.091878,19.3672137 160.775209,20.7226738 C160.614242,21.4110834 160.317883,21.9966664 160.675357,21.9966664 C160.922261,21.9966664 160.904961,21.7826961 161.243443,21.0534582 C161.755491,19.9499613 162.933409,18.0126987 165.503616,18.0126987 Z M79.243345,18.015723 C83.6924666,18.015723 85.2189652,20.9914566 85.2771173,25.1168637 L85.2788561,25.3657531 L85.2788561,32.1793453 L81.5104225,32.1793453 C81.3366684,31.4780823 81.2851439,30.6454506 81.3082735,29.544033 C81.3214367,28.9151645 81.413203,28.6097087 81.1405369,28.6097087 C80.9011548,28.6097087 80.8526391,29.0355701 80.5861785,29.6674628 C80.2021894,30.5783487 78.9528145,32.4982215 76.1105055,32.4982215 C74.1627294,32.4982215 71.8507089,31.3145803 71.8507089,28.4830656 C71.8507089,25.4978778 73.9079276,23.636223 77.9828754,23.636223 C79.7125187,23.636223 80.2791001,23.7870607 80.2791001,23.7870607 C80.3686098,22.9028267 80.1271592,21.8375118 78.1620829,21.8375118 C75.7747929,21.8375118 72.8487276,23.4867382 72.6735825,23.5866913 L72.6653224,23.5914254 L72.6653224,19.4311023 C72.6653224,19.4311023 75.4134205,18.015723 79.243345,18.015723 Z M106.791459,18.015723 C110.38595,18.015723 111.848381,19.4311023 111.848381,19.4311023 L111.848381,19.4311023 L111.848381,24.2461895 C111.433176,23.9932812 109.582055,22.8793883 107.280566,22.8793883 C105.16825,22.8793883 104.017787,24.0119942 104.017787,25.2568777 C104.017787,26.5539308 104.886745,27.6714151 107.303507,27.6714151 C109.585816,27.6714151 111.256789,26.5059198 111.856467,26.1685196 L111.856467,26.1685196 L111.856467,30.7420397 C111.856467,30.7420397 109.960967,32.4982215 106.781305,32.4982215 C102.710494,32.4982215 99.8469356,29.8383366 99.8469356,25.0413953 C99.8469356,20.244454 103.00234,18.015723 106.791459,18.015723 Z M91.8965563,18.3502878 L91.8965563,32.1793453 L86.8968003,32.1793453 L86.8968003,18.3502878 C86.8968003,18.3502878 87.7475185,18.8443853 89.4017555,18.8443853 C91.0561806,18.8443853 91.8965563,18.3502878 91.8965563,18.3502878 L91.8965563,18.3502878 Z M133.173878,18.3502878 L133.173878,32.1793453 L128.173934,32.1793453 L128.173934,18.3502878 C128.173934,18.3502878 129.024841,18.8443853 130.679078,18.8443853 C132.333503,18.8443853 133.173878,18.3502878 133.173878,18.3502878 L133.173878,18.3502878 Z M66.121148,18.0126987 C69.4392123,18.0126987 70.7062635,20.4215654 70.7062635,24.0346765 L70.7062635,24.0346765 L70.7062635,32.176321 L65.7766485,32.176321 L65.7766485,32.176321 L65.7766485,24.6703497 C65.7766485,23.4196065 65.5756277,22.2051551 64.4402085,22.2051551 C63.3892217,22.2051551 62.8982347,24.0785291 62.8982347,25.287877 L62.8982347,25.287877 L62.8982347,32.1793453 L57.8783578,32.1793453 L57.8783578,32.1793453 L57.8783578,24.6703497 C57.8783578,23.0695421 57.6542075,22.2051551 56.534396,22.2051551 C55.5652091,22.2051551 54.999756,23.9292035 54.999756,25.287877 L54.999756,25.287877 L54.999756,32.176321 L50,32.176321 L50,18.3313859 L53.6629399,18.3313859 C53.6629399,18.3313859 53.9038263,19.3672137 53.5869695,20.7226738 C53.4261906,21.4110834 53.1300188,21.9966664 53.4874934,21.9966664 C53.7342092,21.9966664 53.7345853,21.7906349 54.0553911,21.0534582 C54.5245648,19.975101 55.5138726,18.0126987 57.8245768,18.0126987 C60.0224536,18.0126987 61.0568923,19.3547384 61.4000755,20.6111522 C61.6608948,21.5660796 61.4326074,21.9966664 61.7513447,21.9966664 C61.9775635,21.9966664 62.0556024,21.5012458 62.334474,20.8746456 C62.8337351,19.7524358 63.9217668,18.0126987 66.121148,18.0126987 Z M117.790433,14.1402526 C117.790433,14.1402526 117.998224,14.6570324 117.998224,16.2017012 C117.998224,18.4790102 117.50498,20.3319701 117.27218,21.0381476 C117.14901,21.4120285 116.928808,21.9892946 117.244725,21.9996907 C117.426753,22.0055503 117.536572,21.7301486 117.75903,21.2515508 C117.9813,20.772764 119.082118,18.015723 121.976516,18.015723 C125.962894,18.015723 126.549032,21.2971046 126.549032,24.8510525 L126.549032,24.8510525 L126.549032,32.1793453 L121.549088,32.1793453 L121.549088,32.1793453 L121.549088,24.5499442 C121.549088,22.9852393 121.222453,22.2081794 120.179176,22.2081794 C118.919647,22.2081794 118.474167,24.1688805 118.474167,25.2910903 L118.474167,25.2910903 L118.474167,32.1793453 L113.474223,32.1793453 L113.474223,14.1402526 Z M150.984804,18.0126987 C154.302868,18.0126987 155.56992,20.4215654 155.56992,24.0346765 L155.56992,24.0346765 L155.56992,32.176321 L150.640305,32.176321 L150.640305,32.176321 L150.640305,24.6703497 C150.640305,23.4196065 150.439284,22.2051551 149.303865,22.2051551 C148.252878,22.2051551 147.761703,24.0785291 147.761703,25.287877 L147.761703,25.287877 L147.761703,32.1793453 L142.741826,32.1793453 L142.741826,32.1793453 L142.741826,24.6703497 C142.741826,23.0695421 142.517676,22.2051551 141.398052,22.2051551 C140.428865,22.2051551 139.863412,23.9292035 139.863412,25.287877 L139.863412,25.287877 L139.863412,32.176321 L134.863468,32.176321 L134.863468,18.3313859 L138.526596,18.3313859 C138.526596,18.3313859 138.767482,19.3672137 138.450626,20.7226738 C138.289659,21.4110834 137.993675,21.9966664 138.351149,21.9966664 C138.597865,21.9966664 138.598241,21.7906349 138.919047,21.0534582 C139.388033,19.975101 140.377529,18.0126987 142.688233,18.0126987 C144.985962,18.0126987 145.897419,19.3613541 146.263732,20.6111522 C146.509507,21.4496434 146.296075,21.9966664 146.614813,21.9966664 C146.84122,21.9966664 146.91907,21.5012458 147.197942,20.8746456 C147.697203,19.7524358 148.785423,18.0126987 150.984804,18.0126987 Z M98.5144445,14.1402526 L98.5144445,32.1793453 L93.5145005,32.1793453 L93.5145005,14.1402526 L98.5144445,14.1402526 Z M164.091581,22.2081794 C163.00731,22.2081794 162.140796,23.7278976 162.140796,25.7057995 C162.140796,27.7424865 162.984369,29.2041756 164.131259,29.2041756 C165.529378,29.2041756 166.076026,28.0101383 166.076026,25.7057995 C166.076026,23.4906779 165.483119,22.2081794 164.091581,22.2081794 Z M78.9362665,26.5231205 C77.333554,26.5231205 76.2107338,26.960134 76.2107338,28.0513446 C76.2107338,28.8478735 76.8305321,29.2179741 78.0261259,28.9404932 C79.2984423,28.6454335 80.3071188,27.0516196 80.3071188,26.5845519 C80.3071188,26.5845519 79.6427538,26.5231205 78.9362665,26.5231205 Z M130.659145,14 C132.349299,14 133.719775,14.8989776 133.719775,16.007956 C133.719775,17.1167454 132.349299,18.015723 130.659145,18.015723 C128.968803,18.015723 127.598515,17.1167454 127.598515,16.007956 C127.598515,14.8989776 128.968803,14 130.659145,14 Z M89.3818227,14 C91.0721644,14 92.4424526,14.8989776 92.4424526,16.007956 C92.4424526,17.1167454 91.0721644,18.015723 89.3818227,18.015723 C87.691669,18.015723 86.3213808,17.1167454 86.3213808,16.007956 C86.3213808,14.8989776 87.691669,14 89.3818227,14 Z"></path> <path d="M6.70755025,26.3993461 C7.16492026,25.8906398 7.88199446,25.6303714 8.5787618,25.7193809 C9.30440586,25.8121461 9.90783619,26.2545648 10.2778308,26.9647631 C10.7694803,27.9083768 10.3316719,28.8987486 10.0701047,29.4904553 C10.0416006,29.5544896 10.0155184,29.6132659 9.99353485,29.6664088 C9.82940329,30.0588769 9.82083342,30.4019579 9.96950196,30.6319931 C10.0835184,30.8086976 10.2867733,30.9119787 10.5267295,30.9166733 C10.6386967,30.9185512 10.7407899,30.8947026 10.8309598,30.8734831 C10.9600667,30.8430621 11.0934585,30.81189 11.1744996,30.9144199 C11.2041215,30.9478454 11.250138,31.0255879 11.195738,31.1532809 C11.1033325,31.3694201 10.7381817,31.664804 10.2159788,31.6450867 C9.67887173,31.6032109 9.08084415,31.2096161 8.99998933,30.229948 C8.96012082,29.7456535 9.14139211,29.1565757 9.25280037,28.8484225 C9.46872372,28.2525845 9.27403873,27.6282033 8.76841665,27.2948871 C8.47145218,27.0988408 8.11673426,27.0319897 7.76946839,27.1069155 C7.42872308,27.1805267 7.13846546,27.3825821 6.95216403,27.6760882 C6.79753384,27.919456 6.70307902,28.2231024 6.65240503,28.3860988 C6.63899133,28.4298524 6.62818584,28.4642168 6.61998858,28.4863753 C6.50615841,28.7949041 6.32470082,28.8848526 6.20174188,28.8683276 C6.14361583,28.8602529 6.06369252,28.8211938 6.01245962,28.6799804 C5.87291985,28.2940847 5.98581852,27.2019341 6.70755025,26.3993461 Z M30.038637,24.162841 C30.182648,23.8676448 30.6247413,23.7897146 31.0262209,23.9883898 C31.4278868,24.1874407 31.6367307,24.5879835 31.492906,24.8829919 C31.348895,25.178188 30.9068017,25.2563061 30.5053221,25.057443 C30.1036562,24.8583922 29.8948123,24.4580371 30.038637,24.162841 Z M33.086901,22.7835689 C33.4131148,22.7890147 33.6715149,23.1591365 33.6638765,23.6101932 C33.6564245,24.0610622 33.3857285,24.4221704 33.0595147,24.4165369 C32.7333009,24.4109034 32.4749008,24.0409693 32.4825392,23.5899126 C32.4901775,23.1390437 32.7606872,22.7779354 33.086901,22.7835689 Z M25.9832275,23.1289033 C26.7977374,23.0314435 27.3948335,23.4143347 27.5334417,23.640802 C27.5928719,23.738074 27.5695842,23.8019205 27.5502088,23.8314026 C27.4850033,23.9341203 27.3445321,23.9155297 27.047195,23.8819164 C26.5091565,23.8201355 25.9662741,23.784081 25.1431944,24.0809672 C25.1431944,24.0809672 24.8439943,24.2020878 24.7104162,24.2020878 C24.6720381,24.2020878 24.6401805,24.1887551 24.6131668,24.1649066 C24.5934189,24.1480061 24.5682682,24.1143928 24.5678897,24.0561798 C24.5669641,23.9337447 24.6774408,23.7596691 24.8561039,23.6023063 C25.0655067,23.4195927 25.3917205,23.222983 25.9832275,23.1289033 Z M23.3921473,21.8557291 C24.3124763,21.1892844 25.5053644,21.0448787 26.5056167,21.478847 C26.994658,21.6889771 27.455754,22.0628547 27.6798746,22.4316621 C27.7883021,22.6102445 27.8091678,22.7486411 27.7389322,22.8211257 C27.6297596,22.9375516 27.35068,22.8044129 26.8966634,22.6034843 C26.4424606,22.4027434 25.8528165,22.1783417 25.1411451,22.2222831 C24.1328817,22.2844396 23.2576376,22.7306139 23.0070622,22.7016952 C22.9004978,22.6866725 22.8550403,22.6406654 22.8416265,22.5796357 C22.8004539,22.390913 23.0884759,22.0801308 23.3921473,21.8557291 Z M32.1680624,18.2778843 C32.8027913,18.174791 33.1098161,18.8372923 33.3367312,19.9320718 C33.4894984,20.6685599 33.4602491,21.3449572 33.2905285,21.7372376 C32.99729,21.6953618 32.6781557,21.6972396 32.3450487,21.7372376 C32.0918651,21.4110571 31.8645773,20.8846991 31.7369608,20.268956 C31.5100457,19.1741764 31.5335197,18.3809776 32.1680624,18.2778843 Z M16.1399916,12.9183467 C17.8433455,10.9340352 19.9405407,9.20905319 21.819018,8.24027653 C21.8840372,8.20685102 21.9529687,8.27802108 21.9177578,8.34224314 C21.7685303,8.61471744 21.4814398,9.19759837 21.3903384,9.63982924 C21.3761795,9.70874589 21.4505138,9.76057422 21.5082672,9.72095184 C22.6769361,8.91798829 24.7100436,8.05756289 26.4933208,7.94695823 C26.5698907,7.94226363 26.6069647,8.0412257 26.5460442,8.08835943 C26.2747893,8.29811394 25.9781974,8.58823992 25.7615288,8.88174601 C25.7246412,8.93169651 25.7592932,9.0036177 25.8211453,9.00399327 C27.0732772,9.01300689 28.8384832,9.4546744 29.9890808,10.1051575 C30.0669548,10.1490989 30.011437,10.301016 29.9244343,10.2809231 C28.1836337,9.87887802 25.3341534,9.57372934 22.3741963,10.3013916 C19.7316968,10.9509358 17.7147975,11.9540769 16.2433889,13.032707 C16.1690546,13.0873521 16.0798162,12.9883901 16.1399916,12.9183467 Z M31.6492129,32.9781639 C31.6997006,32.9567566 31.7345389,32.8987314 31.7285773,32.8410818 C31.7214978,32.7700995 31.6587142,32.7184589 31.5882923,32.7257825 C31.5882923,32.7257825 27.9528062,33.2681021 24.5185257,32.000937 C24.892619,30.7754599 25.8872823,31.2178786 27.3907348,31.3403136 C30.1006754,31.5031222 32.5293008,31.1040816 34.3243151,30.5846716 C35.8797457,30.1349293 37.9225409,29.2478387 39.5092701,27.9853681 C40.0445141,29.1704717 40.2334238,30.4744425 40.2334238,30.4744425 C40.2334238,30.4744425 40.6477582,30.3998923 40.9939062,30.6145292 C41.3210515,30.8175235 41.5610078,31.2392859 41.3970625,32.3299343 C41.0633967,34.3675763 40.2041745,36.0212005 38.7601521,37.5426249 C37.8809957,38.4963789 36.8138611,39.3256321 35.5928415,39.9286059 C34.9443262,40.2718747 34.2538931,40.5689487 33.5245231,40.8089364 C28.0804227,42.6011451 22.5079607,40.6309174 20.7116423,36.3997727 C20.5683765,36.0816669 20.4470943,35.7487262 20.3515217,35.4003873 C19.5860091,32.6121733 20.2358285,29.2669926 22.2672592,27.1613728 C22.2674455,27.161185 22.2670729,27.1604339 22.2672592,27.1602461 C22.3924538,27.0261684 22.5202566,26.8682423 22.5202566,26.669567 C22.5202566,26.5033783 22.4155552,26.3279883 22.3246401,26.2036754 C21.6139001,25.1646676 19.1521131,23.3940541 19.6461845,19.967563 C20.0010887,17.5059051 22.1368482,15.772285 24.1282242,15.8750027 C24.2964544,15.8836408 24.4650572,15.8941567 24.6329148,15.9041092 C25.495863,15.9557498 26.2487071,16.0672933 26.9590744,16.097151 C28.1480501,16.1489793 29.217234,15.9747159 30.4835248,14.9112962 C30.910714,14.5524414 31.253136,14.2412836 31.8327198,14.1425093 C31.8936403,14.1319934 32.0451034,14.0771606 32.3480295,14.0916199 C32.6571036,14.1081449 32.9514599,14.1937743 33.2158216,14.37123 C34.2311644,15.0521341 34.3749891,16.7012515 34.4277124,17.9077624 C34.4577069,18.5963656 34.5404247,20.2625713 34.5685563,20.7408567 C34.6332029,21.8345096 34.9184303,21.9886801 35.4954059,22.1802196 C35.819943,22.2880075 36.1211924,22.3681911 36.5651487,22.4938185 C37.9089409,22.8740807 38.7057521,23.2599764 39.2078344,23.7555379 C39.5074071,24.0651934 39.6467606,24.3943784 39.6897962,24.7081651 C39.8481524,25.8733637 38.7921959,27.3127265 35.9969293,28.6206407 C32.9412133,30.0500511 29.2341875,30.4120982 26.6729154,30.1246012 C26.4765537,30.1026305 25.7779234,30.0228224 25.7755014,30.0224468 C23.7267446,29.744339 22.5580758,32.4131225 23.7876652,34.2415734 C24.5801915,35.4199168 26.7386798,36.1868258 28.898286,36.1872014 C33.8499916,36.1879525 37.6559435,34.0564186 39.0716481,32.2157617 C39.1141248,32.160741 39.1182234,32.154732 39.1849194,32.0529531 C39.2545961,31.9472309 39.1972152,31.8888301 39.1103988,31.9487331 C37.9536532,32.7464387 32.8160187,35.9136004 27.3204992,34.9607854 C27.3204992,34.9607854 26.6527949,34.8501807 26.0432166,34.6111319 C25.5588329,34.4212825 24.5449805,33.9510718 24.4218353,32.9026749 C28.8567408,34.2851392 31.6492129,32.9781639 31.6492129,32.9781639 Z M7.28992852,22.3546707 C5.74753899,22.6570026 4.38809747,23.5380843 3.5568205,24.7551111 C3.05995459,24.3374799 2.13440909,23.5288829 1.97083644,23.2137816 C0.643811364,20.6738179 3.41933004,15.7351038 5.35816901,12.9463265 C10.1498417,6.05390968 17.6548085,0.836899997 21.1289575,1.78351816 C21.6938234,1.94463667 23.5642898,4.13062795 23.5642898,4.13062795 C23.5642898,4.13062795 20.0916312,6.07287585 16.8710384,8.78015497 C12.5315192,12.1480575 9.25354557,17.043018 7.28992852,22.3546707 Z M9.88156769,34.0104115 C9.648132,34.0505973 9.41003877,34.0665589 9.16989623,34.0607376 C6.84932564,33.9980178 4.34245362,31.8920224 4.09336861,29.3946856 C3.8180151,26.6342636 5.21732513,24.5098655 7.69494782,24.0060415 C7.99116709,23.9459507 8.34905214,23.9112107 8.7350687,23.9314913 C10.1232006,24.0081071 12.1689766,25.0824183 12.6362206,28.1307128 C13.0501824,30.8302928 12.3927246,33.5786966 9.88156769,34.0104115 Z M40.991298,27.9994519 C40.8133801,27.4242701 40.629128,27.019596 40.629128,27.019596 C41.3428488,25.9424681 41.3555173,24.979325 41.2606899,24.4336252 C41.1593419,23.7574157 40.880076,23.1811072 40.3170731,22.585457 C39.7540702,21.9898068 38.6027274,21.3796972 36.9845132,20.9216925 C36.7995159,20.8693008 36.1891924,20.7004832 36.1355376,20.684146 C36.1314389,20.6488426 36.0908252,18.6665968 36.0541238,17.8157483 C36.0272964,17.2005686 35.9749457,16.2402422 35.6792854,15.2941874 C35.3269894,14.0140652 34.7131262,12.893747 33.9470547,12.1769762 C36.0613896,9.96788754 37.3813352,7.53420942 37.3781681,5.44624129 C37.3720202,1.43142353 32.4801172,0.216462303 26.4515893,2.7327653 C26.4452551,2.73539427 25.1834355,3.27470936 25.1743067,3.27940396 C25.1685314,3.27377044 22.8651005,0.995577312 22.8304485,0.965156336 C15.9570436,-5.07772653 -5.53301249,18.9991619 1.33778418,24.8467496 L2.8393737,26.1289374 C2.44981741,27.1459745 2.29686394,28.311173 2.4218722,29.5642544 C2.58227773,31.1735616 3.40591634,32.7162055 4.74076607,33.9080694 C6.00798839,35.0398424 7.67408206,35.7560498 9.29080586,35.7547353 C11.964604,41.9653091 18.0738004,45.7752547 25.2367177,45.9897038 C32.9203475,46.219739 39.3702893,42.585559 42.0729641,36.0576306 C42.2497641,35.5994381 43,33.5351307 43,31.7128767 C43,29.8814212 41.9727339,29.1223991 41.3186296,29.1223991 C41.2986954,29.0516046 41.1692159,28.5744459 40.991298,27.9994519 Z"></path></svg>