<svg width="125" height="61" viewBox="0 0 125 61" fill="" xmlns="http://www.w3.org/2000/svg" aria-hidden="true" focusable="false"><path fill-rule="evenodd" clip-rule="evenodd" d="M30.4578 3.65821C40.7818 1.32936 51.4274 0.407928 61.9924 0.225613H63.3126C73.6255 0.403736 84.0264 1.28661 94.1179 3.49474C98.1731 4.40025 102.245 5.48766 106.239 6.65072C110.011 7.75657 113.756 8.98857 117.404 10.4354C118.34 10.8159 119.275 11.1996 120.196 11.6173C120.349 11.6874 120.503 11.7554 120.656 11.823C121.218 12.0718 121.77 12.3163 122.295 12.6483C122.357 12.6949 122.421 12.738 122.486 12.781C122.531 12.8118 122.577 12.8426 122.622 12.8747C122.663 12.9019 122.707 12.9371 122.75 12.9725C122.797 13.0098 122.843 13.0472 122.886 13.0758L122.924 13.1136L122.949 13.1261L123 13.1764L123.025 13.189L123.15 13.3147L123.176 13.3273L123.44 13.5914V13.6165H123.452L123.59 13.7548V13.78H123.603L123.628 13.8051V13.8302H123.641L123.678 13.868V13.8931H123.691L123.716 13.9183V13.9434H123.729L123.767 13.9811V14.0063H123.779L123.804 14.0314V14.0566H123.817L123.842 14.0817V14.1069H123.855V14.132H123.867L123.88 14.1446V14.1697H123.892L123.905 14.1823V14.2075H123.917L123.93 14.22V14.2452H123.943L123.955 14.2578V14.2829H123.968L123.98 14.2955V14.3206H123.993V14.3458H124.005L124.018 14.3583V14.3835H124.031L124.043 14.3961V14.4212H124.056V14.4464H124.068V14.4715H124.081V14.4967H124.093V14.5218H124.106V14.547H124.119V14.5721H124.131L124.144 14.5847V14.6098H124.156V14.635H124.169V14.6601H124.181V14.6853H124.194V14.7104H124.207V14.7355H124.219V14.7607H124.232V14.7858H124.244V14.8236H124.257V14.8487H124.269V14.8864H124.282V14.9116H124.295V14.9493H124.307V14.9745H124.32V15.0122H124.332V15.0373H124.345V15.0625H124.357V15.1002H124.37V15.1253H124.383V15.1756H124.395V15.2134H124.408V15.2511H124.42V15.2888H124.433V15.3391H124.445V15.3768H124.458V15.4145H124.471V15.4648H124.483V15.5025H124.496V15.5528H124.508V15.6157H124.521V15.6786H124.533V15.7414H124.546V15.7917H124.559V15.8546H124.571V15.9175H124.584V16.0181H124.596V16.1312H124.609V16.2318H124.621V16.345H124.634V16.6593H124.647L124.634 16.8605L124.621 17.2L124.634 17.2126V17.5143H124.647V17.8161H124.659V18.1179H124.672V18.4196H124.684V18.7214H124.697V19.0232H124.71V19.3249H124.722V19.6267H124.735V19.9285H124.747V20.2302H124.76V20.532H124.772V20.8338H124.785V21.1355H124.798V21.4373H124.81V21.7516H124.823V22.33H124.835V22.9084H124.848V23.4868H124.86V24.0652H124.873V24.6436H124.886V25.2219H124.898V25.8003H124.911V26.3913H124.923V26.9697H124.936V27.5481H124.948V28.1264H124.961V28.7048H124.974V29.2832H124.986V29.8616H124.999C124.961 33.2577 124.907 36.6553 124.71 40.0462C124.702 40.278 124.687 40.5121 124.672 40.7463C124.644 41.1706 124.617 41.5953 124.634 42.0077H124.647C124.644 43.7611 123.851 44.9862 122.409 45.8552L122.396 45.8678L122.346 45.8929L122.333 45.9055L122.283 45.9307L122.27 45.9432L122.17 45.9935L122.157 46.0061L121.956 46.1067L121.943 46.1193L121.767 46.2073L121.73 46.2199C121.706 46.2311 121.681 46.2425 121.657 46.254C121.501 46.3278 121.338 46.4043 121.176 46.4588C120.877 46.576 120.584 46.7163 120.29 46.8565C120.079 46.9573 119.868 47.0581 119.655 47.1503C118.89 47.507 118.116 47.8488 117.341 48.1813C115.351 49.0435 113.333 49.8444 111.306 50.6206C105.726 52.7106 100.077 54.6905 94.3443 56.3542C84.2099 59.2019 73.5861 60.3897 63.0863 60.6544V60.6669C52.4467 60.4637 41.66 59.3027 31.3757 56.4674C25.8726 54.9019 20.4498 53.0207 15.0928 51.0356C13.2083 50.3335 11.3405 49.5948 9.48501 48.8226C8.1807 48.2744 6.88395 47.7092 5.59976 47.1126C5.41219 47.0317 5.2251 46.9407 5.03756 46.8495C4.74527 46.7075 4.45187 46.5648 4.1538 46.4588C3.99118 46.3938 3.84742 46.3362 3.68857 46.2576L3.68559 46.2563C3.62009 46.2294 3.47942 46.1715 3.42453 46.1318L3.1982 46.0187L3.18563 46.0061L3.05989 45.9432L3.04732 45.9307C2.87066 45.8282 2.69589 45.7236 2.5318 45.6038C2.50507 45.5813 2.4741 45.56 2.44289 45.5385C2.39777 45.5074 2.35214 45.476 2.31805 45.4403L2.2929 45.4277L2.24261 45.3774L2.21746 45.3649L2.16717 45.3146L2.14202 45.302L2.09173 45.2517L2.06658 45.2391L1.70194 44.8745H1.68937V44.8493L1.63908 44.799H1.6265V44.7739L1.56363 44.711H1.55106V44.6859L1.50077 44.6356H1.48819V44.6104L1.47562 44.5979H1.46305V44.5727L1.45047 44.5601H1.4379V44.535L1.42533 44.5224H1.41275V44.4973L1.3876 44.4721H1.37503V44.447L1.36246 44.4344H1.34988V44.4093L1.33731 44.3967H1.32474V44.3715L1.31216 44.359H1.29959V44.3338L1.28702 44.3212H1.27444V44.2961L1.26187 44.2835H1.24929V44.2584H1.23672V44.2332H1.22415V44.2081H1.21157V44.1829L1.199 44.1704H1.18643V44.1452H1.17385V44.1201H1.16128V44.0949H1.14871V44.0698L1.13613 44.0572H1.12356V44.032H1.11099V44.0069H1.09841V43.9818H1.08584V43.9566H1.07326V43.9315H1.06069V43.8937H1.04812V43.8686H1.03554V43.8435H1.02297V43.8057H1.0104V43.7806H0.997823V43.7554H0.985249V43.7177H0.972676V43.6926H0.960102V43.6674H0.947528V43.6297H0.934955V43.592H0.922381V43.5543H0.909808V43.5165H0.897234V43.4788H0.88466V43.4411H0.872087V43.4034H0.859513V43.3531H0.846939V43.3154H0.834366V43.2776H0.821792V43.2273H0.809219V43.1645H0.796645V43.1016H0.784071V43.0513H0.771498V42.9884H0.758924V42.9382H0.746351V42.8501H0.733777V42.7495H0.721203V42.649H0.70863V42.5484H0.696056V42.2718H0.683483V41.97L0.696056 41.4796H0.683483V41.2784H0.670909V41.0647H0.658335V40.8635H0.645762V40.6498H0.633188V40.4486H0.620615V40.2348H0.608041V40.0337H0.595467V39.8199H0.582894V39.6187H0.57032V39.405H0.557747V39.2038H0.545173V38.99H0.532599V38.7889H0.520026V38.5751H0.50745V38.3739H0.494876V38.1728H0.482305V37.6195H0.469731V37.0663H0.457158V36.513H0.444584V35.9598H0.432013V35.4066H0.419439V34.8533H0.406859V34.3127H0.394286V33.7594H0.381714V33.2062H0.36914V32.6529H0.356567V32.0997H0.343993V31.5465H0.331422V30.9932H0.318848C0.356336 26.307 0.468547 21.6003 0.696056 16.9108H0.683483C0.668186 13.4941 3.1005 12.47 5.67764 11.385C6.02394 11.2392 6.37286 11.0923 6.71881 10.9383C10.2937 9.44248 13.979 8.19372 17.6956 7.06565C21.9006 5.79404 26.1809 4.6555 30.4578 3.65821ZM122.836 30.4412L122.773 21.954L122.723 17.6287C122.861 16.1324 122.019 14.8876 120.183 13.9195C113.796 11.2665 105.623 8.95291 95.677 7.004C85.7313 5.04252 74.7168 4.01148 62.6462 3.92347C50.5755 4.01148 39.561 5.04252 29.5902 7.004C19.6445 8.95291 11.4716 11.2665 5.08422 13.9195C3.24847 14.8876 2.40604 16.1324 2.56949 17.6287L2.49405 21.954L2.44376 30.4412L2.49405 37.8093L2.56949 41.0659C2.43118 42.5622 3.26104 43.8069 5.08422 44.8003C11.4716 47.5287 19.6445 50.1818 29.5902 52.7845C39.561 55.3621 50.5755 56.7452 62.6462 56.9338C74.7168 56.7452 85.7313 55.3621 95.677 52.7845C105.623 50.1818 113.796 47.5287 120.183 44.8003C122.019 43.8069 122.861 42.5622 122.723 41.0659L122.773 37.8093L122.836 30.4412Z"></path> <path fill-rule="evenodd" clip-rule="evenodd" d="M28.6598 39.9971C29.1753 39.6074 30.8099 40.06 33.5761 41.3299C36.3297 42.6124 40.1269 43.9704 44.9678 45.4164C49.8086 46.8749 55.6302 47.667 62.4325 47.7928C69.2097 47.667 75.0312 46.8749 79.8972 45.4164C84.7381 43.9704 88.5479 42.6124 91.3015 41.3299C94.0551 40.0726 95.6897 39.6325 96.2052 39.9971C96.6956 40.6887 95.5011 42.0718 92.6343 44.1339C89.7549 46.1834 85.6685 48.1574 80.4002 50.0435C75.1318 51.9169 69.1468 52.9102 62.4325 53.036C55.7308 52.9102 49.7332 51.9169 44.4648 50.0435C39.1713 48.1574 35.0975 46.1834 32.2307 44.1339C29.3765 42.0718 28.182 40.6887 28.6598 39.9971Z"></path> <path fill-rule="evenodd" clip-rule="evenodd" d="M111.193 24.9968H102.052L102.14 24.5693C102.492 23.0479 103.146 21.9791 104.114 21.3379C105.082 20.6966 105.962 20.3823 106.78 20.4074C107.886 20.4074 108.892 20.7847 109.797 21.5265C110.791 22.7461 111.256 23.7772 111.193 24.5945V24.9968ZM113.054 19.7662C110.941 17.591 108.817 16.6731 106.679 16.9874C104.303 17.0251 102.354 17.8047 100.832 19.3387C99.072 21.1493 98.1667 23.576 98.1038 26.6188C98.0409 29.7371 98.8834 32.2518 100.644 34.1755C102.19 35.7472 104.29 36.4765 106.943 36.3634C107.873 36.3634 109.03 36.1119 110.413 35.6215C111.809 35.106 113.167 33.9744 114.5 32.2266L110.74 31.3465C109.382 32.541 108.024 33.0314 106.679 32.8427C105.145 32.717 104.001 32.1512 103.259 31.1579C102.53 30.2023 102.102 29.1838 101.976 28.1151L114.714 28.0899C114.839 27.4864 114.902 26.7697 114.902 25.9524C115.066 23.9532 114.45 21.8911 113.054 19.7662ZM45.5587 17.5407V35.6467H49.4817V23.2617C53.1406 26.229 55.8565 30.3657 57.6545 35.6718V35.6467H61.1751V17.5407H57.2522V26.3799C55.9697 24.4813 54.6117 22.809 53.1657 21.363C51.5437 19.7159 50.1104 18.4334 48.8404 17.5407H45.5587ZM34.1545 17.5407C32.0924 19.8542 30.5081 22.6204 29.4016 25.8267C28.3077 29.0078 27.6162 32.2895 27.327 35.6467H31.3002L31.8032 31.6985H40.1898C40.4287 32.9936 40.5921 34.3139 40.7053 35.6467H44.8169C44.5528 32.2895 43.8613 29.0078 42.7548 25.8267C41.6483 22.6204 40.064 19.8542 38.002 17.5407H34.1545ZM32.6079 28.3791C33.3749 25.6381 34.5065 23.1359 36.0028 20.8601C37.4739 23.1359 38.6055 25.6381 39.3976 28.3791H32.6079ZM24.2213 26.5937C24.083 29.1964 23.2028 30.9064 21.606 31.7237C20.0091 32.541 18.5255 32.9056 17.1549 32.8176L15.9982 32.7673V20.4829L17.4944 20.4577C18.6386 20.3697 20.0091 20.7092 21.606 21.5014C23.1903 22.2935 24.0578 23.9909 24.2213 26.5937ZM27.9934 26.3296C27.8299 22.2558 26.4846 19.653 23.9321 18.5088C21.4048 17.3521 19.1541 16.8491 17.2052 16.9874L11.8112 17.4149C11.9243 17.7041 11.9872 18.4837 12.0249 19.7662C12.0752 21.0361 12.1003 23.3245 12.1003 26.6188C12.1003 29.9257 12.0752 32.2392 12.0249 33.5343L11.8866 35.8604L16.564 36.2879C18.7895 36.3759 21.1785 35.7473 23.7435 34.3893C26.2959 33.0188 27.7042 30.3406 27.9934 26.3296ZM93.1624 17.5407V26.3799C91.8799 24.4813 90.5345 22.809 89.1137 21.363C87.454 19.7159 85.9954 18.4334 84.7506 17.5407H81.4689V35.6467H85.4296V23.2617C89.0634 26.229 91.7667 30.3657 93.5647 35.6718L93.5899 35.6467H97.0979V17.5407H93.1624ZM75.2198 22.2935C74.1888 21.1367 72.8812 20.5332 71.2969 20.4829C69.7252 20.5332 68.4301 21.1367 67.3991 22.2935C66.3555 23.4377 65.8148 24.8711 65.7771 26.6188C65.8148 28.3665 66.3555 29.7999 67.3991 30.9441C68.4301 32.1009 69.7252 32.7044 71.2969 32.7422C72.8812 32.7044 74.1888 32.1009 75.2198 30.9441C76.276 29.7999 76.8167 28.3665 76.8544 26.6188C76.8167 24.8711 76.276 23.4377 75.2198 22.2935ZM80.4882 26.6188C80.4253 29.3473 79.5326 31.6231 77.81 33.4589C76.0874 35.282 73.9122 36.225 71.2969 36.2879C68.6941 36.225 66.5441 35.282 64.8341 33.4589C63.1115 31.6231 62.2062 29.3473 62.1433 26.6188C62.2062 23.8778 63.1115 21.5894 64.8341 19.7662C66.5566 17.943 68.7193 17 71.2969 16.9246C73.9122 17 76.0874 17.943 77.81 19.7662C79.5326 21.5894 80.4253 23.8778 80.4882 26.6188Z"></path></svg>