<svg width="139" height="35" viewBox="0 0 139 35" fill="" xmlns="http://www.w3.org/2000/svg" aria-hidden="true" focusable="false"><path d="M7.83194 0.458664H14.3049L16.7156 18.0025L19.1709 0.458664H25.1974V33.6717H20.4652V12.1993L17.4295 33.6717H15.4207L12.3405 12.1993V33.6717H7.83194V0.458664ZM32.5664 16.302H33.8599C35.377 16.302 35.6017 15.2279 35.6017 13.8878V7.24488C35.6017 5.9517 35.3346 4.96832 33.8599 4.96832H32.5664V16.302ZM32.5664 21.0746V33.6717H27.5223V0.460767H35.512C39.0817 0.460767 40.6896 1.97894 40.6896 5.95135V15.0026C40.6896 18.9333 38.9492 21.0746 35.512 21.0746H32.5664ZM50.7343 7.51298C50.7343 5.77472 50.1522 4.96797 48.9943 4.96797C47.698 4.96797 47.2088 5.81713 47.2088 7.51298V26.6219C47.2088 28.0483 47.6093 29.1627 49.0378 29.1627C50.379 29.1627 50.7343 28.0486 50.7343 26.6219V7.51298ZM55.8657 26.2602C55.8657 30.9041 54.3048 34.0736 49.4412 34.0736H48.591C43.7704 34.0736 42.0746 30.9041 42.0746 26.2602V7.78108C42.0746 3.1831 43.8149 0.146408 48.5457 0.146408H49.3949C54.3051 0.146408 55.8661 3.1831 55.8661 7.73727V26.2602H55.8657ZM64.6159 0.14816C68.7681 0.14816 70.3749 1.97894 70.3749 5.90614V11.3526H65.5085V6.57691C65.5085 5.46071 65.2866 4.61226 64.0804 4.61226C62.8745 4.61226 62.6085 5.37065 62.6085 6.93368V7.55574C62.6085 9.43137 62.9642 10.4586 64.6614 12.6496L67.8751 16.7965C70.1513 19.746 70.8666 21.4422 70.8666 25.1906V26.2602C70.8666 31.127 68.7681 34.0277 64.3488 34.0277H63.3651C59.3485 34.0277 57.2062 31.8412 57.2062 27.7343V21.0826H62.2044V26.8872C62.2044 28.4068 62.6968 29.2093 63.8575 29.2093C65.0634 29.2093 65.5088 28.4068 65.5088 26.3503V25.5937C65.5088 23.2263 65.287 22.3768 63.4555 20.0127L60.2418 15.9064C58.0992 13.1371 57.475 10.9958 57.475 7.69241V6.62002C57.475 2.20288 59.7074 0.148511 63.6791 0.148511H64.6159V0.14816ZM79.5257 0.14816C83.6768 0.14816 85.2815 1.97894 85.2815 5.90614V11.3526H80.4183V6.57691C80.4183 5.46071 80.195 4.61226 78.9898 4.61226C77.7839 4.61226 77.5151 5.37065 77.5151 6.93368V7.55574C77.5151 9.43137 77.8736 10.4586 79.5705 12.6496L82.7842 16.7965C85.0628 19.746 85.7736 21.4422 85.7736 25.1906V26.2602C85.7736 31.127 83.6768 34.0277 79.2554 34.0277H78.2745C74.2572 34.0277 72.1153 31.8412 72.1153 27.7343V21.0826H77.1135V26.8872C77.1135 28.4068 77.6062 29.2093 78.7666 29.2093C79.9718 29.2093 80.4186 28.4068 80.4186 26.3503V25.5937C80.4186 23.2263 80.1954 22.3768 78.3646 20.0127L75.1513 15.9064C73.0093 13.1371 72.3813 10.9958 72.3813 7.69241V6.62002C72.3813 2.20288 74.6165 0.148511 78.5864 0.148511H79.5257V0.14816ZM100.067 18.5422V28.985H101.584C103.19 28.985 103.548 28.2249 103.548 26.7537V20.6831C103.548 19.2991 103.19 18.5422 101.584 18.5422H100.067ZM100.067 4.97043V13.5836H101.584C102.924 13.5836 103.323 12.6496 103.323 11.2629V7.0686C103.323 5.72776 102.968 4.97078 101.584 4.97078H100.067V4.97043ZM95.0217 0.460767H102.968C107.164 0.460767 108.28 2.64901 108.28 5.86023V10.9516C108.28 13.7174 107.076 15.0572 105.779 15.5496C107.118 15.9933 108.681 17.1098 108.681 20.4143V27.6004C108.681 31.1267 107.118 33.6713 103.323 33.6713H95.0214V0.460767H95.0217ZM115.767 0.460767V28.541H119.751V33.6717H110.724V0.460767H115.767ZM132.174 0.460767V5.28233H126.434V13.9862H130.906V19.0307H126.434V28.6265H132.324V33.6717H121.393V0.460767H132.174ZM87.5381 0.460767H92.5815V33.6717H87.5381V0.460767ZM0.501465 0.460767H5.54382V33.6717H0.501465V0.460767Z"></path> <path d="M136.089 0.460754V1.16096H135.473V5.28232H134.747V1.16096H134.131V0.460754H136.089ZM136.295 0.460754H137.235L137.585 3.00786L137.941 0.460754H138.816V5.28197H138.129V2.16537L137.689 5.28232H137.397L136.95 2.16537V5.28232H136.295V0.460754Z"></path></svg>