<svg width="107" height="39" viewBox="0 0 107 39" fill="none" xmlns="http://www.w3.org/2000/svg">
<path d="M97.632 0H9.36803C9.01415 0 8.66027 0 8.29655 0C7.99182 0 7.69692 0.00975 7.39219 0.00975C6.73358 0.02925 6.07497 0.06825 5.42618 0.18525C4.76757 0.30225 4.15811 0.49725 3.55848 0.7995C2.96867 1.092 2.42802 1.482 1.96601 1.95C1.49417 2.40825 1.10096 2.9445 0.806063 3.5295C0.501332 4.12425 0.304731 4.72875 0.186771 5.382C0.0688103 6.0255 0.0294901 6.67875 0.00983004 7.332C0.00983004 7.63425 0 7.9365 0 8.229C0 8.58 0 8.94075 0 9.29175V29.6985C0 30.0592 0 30.4102 0 30.7612C0 31.0635 0.00983004 31.356 0.0196601 31.6583C0.0393202 32.3115 0.0786403 32.9648 0.196601 33.6083C0.314561 34.2615 0.501332 34.8758 0.815893 35.4608C1.11079 36.0457 1.504 36.5723 1.97584 37.0305C2.43785 37.4985 2.9785 37.8885 3.56831 38.181C4.16794 38.4832 4.7774 38.6783 5.43601 38.7952C6.0848 38.9123 6.75324 38.9513 7.40202 38.9708C7.69692 38.9903 7.99182 39 8.29655 39C8.66027 39 9.01415 39 9.36803 39H97.632C97.9859 39 98.3397 39 98.6936 39C98.9885 39 99.3031 39 99.598 38.9903C100.257 38.9708 100.915 38.9318 101.564 38.8148C102.223 38.6978 102.832 38.5028 103.442 38.2005C104.031 37.908 104.562 37.518 105.034 37.05C105.506 36.5918 105.889 36.0555 106.194 35.4803C106.499 34.8855 106.695 34.281 106.803 33.6278C106.921 32.9843 106.961 32.331 106.99 31.6778C106.99 31.3755 106.99 31.083 106.99 30.7808C107 30.4298 107 30.0788 107 29.718V9.3015C107 8.94075 107 8.58975 106.99 8.23875C106.99 7.9365 106.99 7.644 106.99 7.34175C106.971 6.6885 106.931 6.03525 106.803 5.39175C106.695 4.7385 106.499 4.134 106.194 3.53925C105.889 2.95425 105.496 2.418 105.034 1.95975C104.572 1.5015 104.031 1.1115 103.442 0.80925C102.832 0.507 102.223 0.312 101.564 0.195C100.915 0.078 100.257 0.039 99.598 0.0195C99.3031 0.0195 98.9885 0.00975 98.6936 0.00975C98.3496 0 97.9859 0 97.632 0Z" fill="#B1B1B1"/>
<path d="M8.29657 38.1419C8.00167 38.1419 7.70676 38.1419 7.41186 38.1322C6.86138 38.1127 6.2126 38.0834 5.57365 37.9762C4.97401 37.8689 4.44319 37.6934 3.94186 37.4399C3.4307 37.1864 2.96868 36.8452 2.56565 36.4454C2.16262 36.0457 1.8284 35.5972 1.56299 35.0804C1.30741 34.5929 1.13047 34.0567 1.03217 33.4619C0.914205 32.8087 0.884715 32.1359 0.865055 31.6289C0.855225 31.4242 0.855225 30.7417 0.855225 30.7417V8.22891C0.855225 8.22891 0.865055 7.55616 0.865055 7.36116C0.884715 6.85416 0.914205 6.18141 1.03217 5.53791C1.1403 4.93341 1.31724 4.40691 1.57282 3.91941C1.83823 3.41241 2.17245 2.95416 2.57548 2.55441C2.97851 2.14491 3.44053 1.81341 3.94186 1.55991C4.44319 1.30641 4.98384 1.13091 5.56381 1.03341C6.23226 0.90666 6.9007 0.87741 7.41186 0.86766L8.29657 0.85791H98.6936L99.5882 0.86766C100.089 0.87741 100.768 0.90666 101.417 1.02366C102.006 1.13091 102.547 1.29666 103.058 1.55991C103.56 1.81341 104.022 2.15466 104.425 2.55441C104.828 2.95416 105.162 3.41241 105.427 3.91941C105.683 4.41666 105.85 4.94316 105.958 5.52816C106.076 6.14241 106.105 6.77616 106.125 7.37091C106.125 7.64391 106.125 7.94616 106.125 8.23866C106.135 8.60916 106.135 8.95041 106.135 9.30141V29.7082C106.135 30.0592 106.135 30.4102 106.125 30.7612C106.125 31.0829 106.125 31.3657 106.125 31.6679C106.105 32.2432 106.066 32.8769 105.958 33.4717C105.86 34.0664 105.683 34.6027 105.427 35.0999C105.162 35.6069 104.828 36.0652 104.425 36.4552C104.022 36.8647 103.56 37.1962 103.048 37.4497C102.537 37.7032 102.016 37.8787 101.407 37.9859C100.778 38.1029 100.129 38.1322 99.5685 38.1419C99.2834 38.1517 98.9787 38.1517 98.6838 38.1517H97.6222L8.29657 38.1419Z" fill="#000001"/>
<path d="M40.4703 16.1363H36.4891L35.5356 18.9346H33.8448L37.6098 8.58008H39.3595L43.1342 18.9443H41.414L40.4703 16.1363ZM36.902 14.8493H40.0574L38.5043 10.3058H38.465L36.902 14.8493Z" fill="white"/>
<path d="M51.2834 15.1613C51.2834 17.5111 50.0153 19.0223 48.1083 19.0223C47.0269 19.0223 46.1619 18.5446 45.7097 17.6963H45.6704V21.4403H44.1074V11.3881H45.6213V12.6458H45.6507C46.0833 11.8366 47.0171 11.3101 48.0788 11.3101C50.0153 11.3101 51.2834 12.8213 51.2834 15.1613ZM49.6811 15.1613C49.6811 13.6306 48.8848 12.6263 47.6659 12.6263C46.4666 12.6263 45.6704 13.6501 45.6704 15.1613C45.6704 16.6823 46.4765 17.7061 47.6659 17.7061C48.8848 17.7061 49.6811 16.7116 49.6811 15.1613Z" fill="white"/>
<path d="M59.6684 15.1613C59.6684 17.5111 58.4003 19.0223 56.4933 19.0223C55.412 19.0223 54.5469 18.5446 54.0947 17.6963H54.0554V21.4403H52.4924V11.3881H54.0063V12.6458H54.0357C54.4683 11.8366 55.4021 11.3101 56.4638 11.3101C58.4003 11.3101 59.6684 12.8213 59.6684 15.1613ZM58.0661 15.1613C58.0661 13.6306 57.2698 12.6263 56.0509 12.6263C54.8516 12.6263 54.0554 13.6501 54.0554 15.1613C54.0554 16.6823 54.8615 17.7061 56.0509 17.7061C57.2698 17.7061 58.0661 16.7116 58.0661 15.1613Z" fill="white"/>
<path d="M65.2125 16.0581C65.3304 17.0818 66.3331 17.7643 67.7093 17.7643C69.0265 17.7643 69.98 17.0916 69.98 16.1653C69.98 15.3561 69.4099 14.8783 68.0533 14.5468L66.6968 14.2251C64.7799 13.7668 63.8854 12.8796 63.8854 11.4268C63.8854 9.64256 65.4582 8.41406 67.6896 8.41406C69.9014 8.41406 71.4152 9.64256 71.4644 11.4268H69.8817C69.7834 10.3933 68.9282 9.76931 67.67 9.76931C66.4117 9.76931 65.5467 10.4031 65.5467 11.3196C65.5467 12.0508 66.0972 12.4798 67.4439 12.8113L68.594 13.0941C70.7369 13.6011 71.6315 14.4493 71.6315 15.9703C71.6315 17.9106 70.0783 19.1196 67.6012 19.1196C65.2813 19.1196 63.7183 17.9301 63.62 16.0581H65.2125Z" fill="white"/>
<path d="M75.0033 9.59375V11.378H76.4483V12.6065H75.0033V16.7698C75.0033 17.4133 75.2982 17.7155 75.9273 17.7155C76.0846 17.7155 76.3402 17.696 76.4385 17.6765V18.8952C76.2615 18.9342 75.9175 18.9635 75.5734 18.9635C74.0301 18.9635 73.4305 18.3883 73.4305 16.9258V12.5967H72.3197V11.3682H73.4305V9.59375H75.0033Z" fill="white"/>
<path d="M77.2936 15.1613C77.2936 12.7823 78.7091 11.2905 80.911 11.2905C83.1228 11.2905 84.5285 12.7823 84.5285 15.1613C84.5285 17.5403 83.1326 19.032 80.911 19.032C78.6894 19.032 77.2936 17.55 77.2936 15.1613ZM82.9262 15.1613C82.9262 13.533 82.1693 12.5678 80.9012 12.5678C79.6331 12.5678 78.8762 13.533 78.8762 15.1613C78.8762 16.7993 79.6331 17.7548 80.9012 17.7548C82.1693 17.7548 82.9262 16.7993 82.9262 15.1613Z" fill="white"/>
<path d="M85.8064 11.3881H87.3006V12.6751H87.3399C87.5758 11.8171 88.2737 11.3101 89.1683 11.3101C89.3944 11.3101 89.5811 11.3393 89.7089 11.3686V12.8213C89.5811 12.7726 89.3059 12.7238 89.011 12.7238C88.0083 12.7238 87.3792 13.3966 87.3792 14.4593V18.9443H85.8162V11.3881H85.8064Z" fill="white"/>
<path d="M96.9144 16.7213C96.708 18.096 95.3613 19.032 93.6312 19.032C91.4194 19.032 90.0432 17.5598 90.0432 15.2003C90.0432 12.831 91.4292 11.2905 93.5722 11.2905C95.6758 11.2905 97.0029 12.7238 97.0029 15.015V15.5513H91.616V15.6488C91.616 16.9455 92.4319 17.7938 93.6607 17.7938C94.5257 17.7938 95.2138 17.3843 95.4202 16.731H96.9144V16.7213ZM91.6258 14.469H95.4301C95.3907 13.3088 94.6437 12.5483 93.5624 12.5483C92.4811 12.5483 91.7045 13.3283 91.6258 14.469Z" fill="white"/>
<path d="M35.8206 30.0395L35.8894 29.24C36.2335 29.3472 36.5677 29.3862 36.8233 29.3862C37.1084 29.3862 37.2165 29.357 37.364 29.162C37.6097 28.8012 37.7866 28.0115 37.7866 26.9C37.7866 26.0712 37.5311 25.8372 36.8725 25.8372C36.725 25.8372 36.5579 25.847 36.3711 25.8567C35.9484 27.4362 35.339 28.8695 34.6312 29.8737L33.8645 29.4642C34.5427 28.577 35.0932 27.329 35.4864 25.9347C34.9851 25.9932 34.4641 26.0712 33.9824 26.1785L33.8153 25.3692C34.3756 25.2717 35.0539 25.1742 35.683 25.1255C35.801 24.5307 35.9189 23.9067 35.9681 23.2827L36.8626 23.3997C36.784 23.9555 36.6759 24.521 36.5481 25.067H36.9118C38.0914 25.067 38.6517 25.6422 38.6517 26.8707C38.6517 28.1382 38.4158 29.0937 38.111 29.6007C37.8555 30.02 37.5409 30.1857 37.0002 30.1857C36.6169 30.1857 36.1942 30.137 35.8206 30.0395ZM38.7991 25.0962L39.4774 24.6477C40.5391 25.574 40.9323 26.9 41.0601 28.0407L40.1754 28.1772C40.0771 27.017 39.7625 25.925 38.7991 25.0962Z" fill="white"/>
<path d="M44.127 30.1662L43.9403 29.3472C44.1762 29.3667 44.4809 29.3764 44.6579 29.3764C46.4862 29.3764 47.1842 28.8597 47.1842 28.0992C47.1842 27.4947 46.791 27.1437 45.8964 27.1437C45.1199 27.1437 44.2352 27.5727 43.3603 28.3722L42.6427 28.0602C42.6427 26.3052 42.8295 25.4959 43.4291 24.6184L44.2548 24.8817C43.6945 25.6227 43.5471 26.3344 43.5471 27.2704C44.304 26.7537 45.2477 26.4124 46.0734 26.4124C47.312 26.4124 48.0787 27.0462 48.0787 28.0699C48.0787 29.3764 47.0466 30.1759 44.5497 30.1759C44.4514 30.1759 44.2745 30.1662 44.127 30.1662ZM43.262 24.0724L43.4979 23.2632C44.648 23.4387 46.3191 23.8092 47.135 24.0919L46.9089 24.8914C46.1815 24.6184 44.3924 24.2089 43.262 24.0724Z" fill="white"/>
<path d="M50.7721 29.5327C51.7944 29.2012 52.6202 28.6259 53.2591 27.9337C52.7086 27.4754 52.1385 27.1049 51.529 26.7734L52.0402 26.1397C52.7185 26.4907 53.2886 26.8417 53.7998 27.2414C54.2618 26.5589 54.5665 25.8277 54.7041 25.1257H52.3449C51.7944 25.9934 51.1063 26.7929 50.3298 27.4267L49.6515 26.8514C50.7623 25.9447 51.7748 24.5992 52.227 23.3414L53.1117 23.5559C53.0134 23.8094 52.9052 24.0824 52.7873 24.3262H55.0777L55.7363 24.6284C55.2644 27.2707 53.7211 29.3962 51.3029 30.2444L50.7721 29.5327ZM54.6845 23.1269L55.2055 22.8832C55.4807 23.2634 55.7068 23.6339 55.8641 24.0142L55.2841 24.2774C55.1367 23.8777 54.9204 23.4877 54.6845 23.1269ZM55.8346 23.0392L56.3654 22.7954C56.6505 23.1952 56.8569 23.5364 57.0437 23.9557L56.4637 24.1994C56.3064 23.7997 56.1098 23.4097 55.8346 23.0392Z" fill="white"/>
<path d="M59.8845 30.215L59.4127 29.474C61.8899 28.8792 62.6271 27.2607 62.6664 25.4277H58.7836V27.2705H57.8497V24.6477H60.1696V23.3022H61.1035V24.6477H62.8336L63.6888 24.8915C63.5806 27.485 62.6959 29.4837 59.8845 30.215Z" fill="white"/>
<path d="M65.4877 24.7063L66.0087 23.9556C66.854 24.3456 67.6994 24.8526 68.2892 25.3206L67.6994 26.1103C67.0998 25.6033 66.3134 25.1158 65.4877 24.7063ZM65.6646 29.2303C67.8764 28.9183 69.98 27.4753 71.0023 25.4083L71.6118 26.0908C70.4617 28.2163 68.2794 29.7666 66.0087 30.0786L65.6646 29.2303Z" fill="white"/>
<path d="M79.2006 29.6788H73.3812V24.2188H79.2006V29.6788ZM74.2954 25.0573V28.8305H78.2766V25.0573H74.2954Z" fill="white"/>
<path d="M87.5364 27.2216H80.9896V26.2856H87.5364V27.2216Z" fill="white"/>
<path d="M89.7581 23.322H90.6722V25.6718C91.9796 26.2178 93.1986 26.832 94.2111 27.4268L93.6901 28.236C92.825 27.6803 91.7732 27.1148 90.6722 26.6273V30.1665H89.7581V23.322ZM91.9403 23.8193L92.4908 23.5658C92.766 23.9558 92.9823 24.3945 93.1494 24.8138L92.5498 25.077C92.4023 24.6578 92.1861 24.1898 91.9403 23.8193ZM92.9921 23.4195L93.5524 23.166C93.8572 23.5853 94.0538 23.9558 94.2504 24.414L93.6507 24.6773C93.464 24.2093 93.2575 23.829 92.9921 23.4195Z" fill="white"/>
<path d="M24.349 19.7925C24.3195 17.1113 26.5608 15.8048 26.6689 15.7463C25.4008 13.9133 23.4348 13.6598 22.7467 13.6403C21.0953 13.4648 19.493 14.6153 18.6574 14.6153C17.8022 14.6153 16.5046 13.65 15.1088 13.6793C13.3099 13.7085 11.6289 14.742 10.7147 16.341C8.81754 19.6073 10.2331 24.4043 12.0516 27.0465C12.9658 28.3433 14.0275 29.7863 15.4233 29.7278C16.7897 29.6693 17.3009 28.8698 18.9425 28.8698C20.5743 28.8698 21.0461 29.7278 22.4715 29.6985C23.9361 29.679 24.8602 28.4018 25.735 27.0953C26.7868 25.6133 27.2095 24.1508 27.2292 24.0825C27.18 24.0728 24.3785 23.01 24.349 19.7925Z" fill="white"/>
<path d="M21.6655 11.9047C22.4027 10.998 22.9041 9.7597 22.7566 8.50195C21.695 8.5507 20.3679 9.2332 19.6012 10.1205C18.9229 10.9005 18.3233 12.1875 18.4805 13.3965C19.67 13.4842 20.8987 12.8017 21.6655 11.9047Z" fill="white"/>
</svg>
