<svg width="133" height="41" viewBox="0 0 133 41" fill="none" xmlns="http://www.w3.org/2000/svg">
<path d="M127.387 40.1668H5.61291C2.93388 40.1668 0.741943 37.9543 0.741943 35.2502V5.75016C0.741943 3.046 2.93388 0.833496 5.61291 0.833496H127.387C130.066 0.833496 132.258 3.046 132.258 5.75016V35.2502C132.258 37.9543 130.066 40.1668 127.387 40.1668Z" fill="black"/>
<path d="M127.387 1.62016C129.647 1.62016 131.479 3.46883 131.479 5.75016V35.2502C131.479 37.5315 129.647 39.3802 127.387 39.3802H5.61291C3.35278 39.3802 1.5213 37.5315 1.5213 35.2502V5.75016C1.5213 3.46883 3.35278 1.62016 5.61291 1.62016H127.387ZM127.387 0.833496H5.61291C2.93388 0.833496 0.741943 3.046 0.741943 5.75016V35.2502C0.741943 37.9543 2.93388 40.1668 5.61291 40.1668H127.387C130.066 40.1668 132.258 37.9543 132.258 35.2502V5.75016C132.258 3.046 130.066 0.833496 127.387 0.833496Z" fill="#A6A6A6"/>
<path d="M63.7918 13.4102C61.7849 13.4102 60.158 14.9442 60.158 17.0682C60.158 19.1725 61.7947 20.7261 63.7918 20.7261C65.7986 20.7261 67.4255 19.1725 67.4255 17.0682C67.4353 14.9442 65.7986 13.4102 63.7918 13.4102ZM63.7918 19.2806C62.6909 19.2806 61.746 18.3661 61.746 17.0682C61.746 15.7505 62.6909 14.8557 63.7918 14.8557C64.8926 14.8557 65.8376 15.7603 65.8376 17.0682C65.8376 18.3661 64.8926 19.2806 63.7918 19.2806ZM55.8618 13.4102C53.855 13.4102 52.2281 14.9442 52.2281 17.0682C52.2281 19.1725 53.8648 20.7261 55.8618 20.7261C57.8589 20.7261 59.4956 19.1725 59.4956 17.0682C59.5053 14.9442 57.8687 13.4102 55.8618 13.4102ZM55.8618 19.2806C54.761 19.2806 53.816 18.3661 53.816 17.0682C53.816 15.7505 54.761 14.8557 55.8618 14.8557C56.9627 14.8557 57.9077 15.7603 57.9077 17.0682C57.9077 18.3661 56.9627 19.2806 55.8618 19.2806ZM46.4317 14.5312V16.0848H50.1044C49.9972 16.96 49.7049 17.5893 49.2666 18.0416C48.7308 18.5825 47.8929 19.1725 46.4317 19.1725C44.1715 19.1725 42.3985 17.3337 42.3985 15.0425C42.3985 12.7513 44.1715 10.9125 46.4317 10.9125C47.6494 10.9125 48.5457 11.3943 49.1984 12.0237L50.2797 10.9322C49.364 10.0472 48.1365 9.36865 46.4219 9.36865C43.324 9.36865 40.7131 11.9155 40.7131 15.0425C40.7131 18.1695 43.324 20.7163 46.4219 20.7163C48.0975 20.7163 49.3542 20.1656 50.3479 19.1233C51.3611 18.1006 51.6826 16.6551 51.6826 15.4948C51.6826 15.131 51.6533 14.8065 51.6046 14.5213H46.4317V14.5312ZM85.0097 15.7407C84.7077 14.9245 83.792 13.4102 81.9118 13.4102C80.0413 13.4102 78.4924 14.895 78.4924 17.0682C78.4924 19.1135 80.0316 20.7261 82.0871 20.7261C83.7433 20.7261 84.7077 19.7035 85.1071 19.1036L83.8699 18.2776C83.4608 18.8873 82.8957 19.2905 82.0871 19.2905C81.2786 19.2905 80.7038 18.9168 80.3336 18.1793L85.1753 16.1536L85.0097 15.7407ZM80.0706 16.96C80.0316 15.544 81.1519 14.8261 81.9605 14.8261C82.5937 14.8261 83.1295 15.1408 83.3049 15.603L80.0706 16.96ZM76.1348 20.5H77.7227V9.75215H76.1348V20.5ZM73.5337 14.2263H73.4753C73.1148 13.7937 72.4329 13.4102 71.5658 13.4102C69.7538 13.4102 68.0977 15.013 68.0977 17.078C68.0977 19.1233 69.7538 20.7163 71.5658 20.7163C72.4329 20.7163 73.1148 20.3328 73.4753 19.8903H73.5337V20.4213C73.5337 21.8176 72.7933 22.565 71.5951 22.565C70.6209 22.565 70.0169 21.857 69.7733 21.267L68.39 21.8471C68.7894 22.8206 69.8415 24.0105 71.6048 24.0105C73.4753 24.0105 75.0437 22.8993 75.0437 20.205V13.6462H73.5337V14.2263ZM71.7022 19.2806C70.6014 19.2806 69.6856 18.3563 69.6856 17.078C69.6856 15.7898 70.6014 14.8458 71.7022 14.8458C72.7836 14.8458 73.6409 15.7898 73.6409 17.078C73.6409 18.3563 72.7933 19.2806 71.7022 19.2806ZM92.472 9.75215H88.6629V20.5H90.2509V16.429H92.472C94.2353 16.429 95.9597 15.1408 95.9597 13.0955C95.9597 11.0502 94.2256 9.75215 92.472 9.75215ZM92.511 14.9343H90.2509V11.2468H92.511C93.6995 11.2468 94.3717 12.24 94.3717 13.0856C94.3717 13.9215 93.6995 14.9343 92.511 14.9343ZM102.331 13.3905C101.181 13.3905 99.9928 13.9018 99.496 15.0327L100.909 15.6227C101.211 15.0327 101.776 14.836 102.36 14.836C103.178 14.836 104.016 15.3375 104.036 16.2225V16.3307C103.743 16.1635 103.13 15.9177 102.38 15.9177C100.86 15.9177 99.3109 16.7633 99.3109 18.3366C99.3109 19.7723 100.558 20.6966 101.951 20.6966C103.023 20.6966 103.607 20.2148 103.977 19.6445H104.036V20.4705H105.565V16.3503C105.555 14.4525 104.153 13.3905 102.331 13.3905ZM102.136 19.2806C101.62 19.2806 100.889 19.0151 100.889 18.3661C100.889 17.5401 101.795 17.2156 102.574 17.2156C103.276 17.2156 103.597 17.3632 104.026 17.5795C103.899 18.5726 103.052 19.2806 102.136 19.2806ZM111.147 13.6265L109.326 18.2875H109.267L107.377 13.6265H105.663L108.498 20.1361L106.88 23.7548H108.536L112.901 13.6265H111.147ZM96.8364 20.5H98.4244V9.75215H96.8364V20.5Z" fill="white"/>
<path d="M10.9124 8.24852C10.6298 8.55336 10.4642 9.02536 10.4642 9.62519V31.3765C10.4642 31.9862 10.6298 32.4582 10.9124 32.7532L10.9806 32.822L23.0508 20.6484V20.5009V20.3534L10.9806 8.17969L10.9124 8.24852Z" fill="url(#paint0_linear)"/>
<path d="M27.0744 24.7088L23.051 20.6477V20.5002V20.3527L27.0744 16.2915L27.1621 16.3407L31.9259 19.0743C33.2897 19.8512 33.2897 21.1295 31.9259 21.9162L27.1621 24.6498L27.0744 24.7088Z" fill="url(#paint1_linear)"/>
<path d="M27.1621 24.6497L23.051 20.5L10.9125 32.7523C11.3607 33.2342 12.1011 33.2932 12.9389 32.8113L27.1621 24.6497Z" fill="url(#paint2_linear)"/>
<path d="M27.1622 16.3504L12.9292 8.18869C12.0914 7.70686 11.351 7.76586 10.9029 8.2477L23.0511 20.5L27.1622 16.3504Z" fill="url(#paint3_linear)"/>
<path opacity="0.2" d="M27.0745 24.561L12.9292 32.6735C12.1401 33.1259 11.4289 33.0964 10.9808 32.6834L10.9126 32.7522L10.9808 32.821C11.4387 33.234 12.1401 33.2635 12.9292 32.8112L27.1621 24.6495L27.0745 24.561Z" fill="black"/>
<path opacity="0.12" d="M10.9124 32.6148C10.6298 32.3099 10.4642 31.8378 10.4642 31.2378V31.3853C10.4642 31.9951 10.6298 32.4672 10.9124 32.7623L10.9806 32.6934L10.9124 32.6148Z" fill="black"/>
<path opacity="0.12" d="M31.9259 21.7783L27.0646 24.5612L27.1523 24.6497L31.9161 21.916C32.5981 21.5227 32.939 21.0113 32.939 20.5C32.8903 20.9622 32.5493 21.4243 31.9259 21.7783Z" fill="black"/>
<path opacity="0.25" d="M12.9291 8.32639L31.9259 19.2217C32.5396 19.5757 32.8903 20.0281 32.9488 20.5001C32.9488 19.9887 32.6078 19.4676 31.9259 19.0841L12.9291 8.18873C11.5652 7.41189 10.4547 8.06089 10.4547 9.63423V9.78173C10.4547 8.19856 11.575 7.54956 12.9291 8.32639Z" fill="white"/>
<path d="M41.4632 27.4131C42.0282 27.364 43.6746 27.1968 45.2723 27.0591C46.2173 26.9805 47.0356 26.9313 47.6104 26.9116V27.6196C47.1135 27.6196 46.3537 27.6295 45.9055 27.7573C44.6683 28.1605 43.9279 29.488 43.9279 30.5303C43.9279 32.2413 45.5061 32.7821 46.9187 32.8313L46.6654 33.5786C45.058 33.5098 43.2265 32.6444 43.2265 30.6876C43.2265 29.3208 44.0448 28.2096 44.8437 27.7278C44.0838 27.8163 41.7165 28.0425 40.7715 28.2391L40.6936 27.4623C41.0248 27.4426 41.2976 27.4328 41.4632 27.4131ZM47.1038 29.9206L46.6557 30.137C46.4511 29.7141 46.1978 29.252 45.9348 28.8881L46.3829 28.6915C46.5875 28.9766 46.9187 29.5273 47.1038 29.9206ZM48.1072 29.5371L47.6493 29.7535C47.435 29.3306 47.1817 28.898 46.8992 28.5243L47.3376 28.3178C47.5519 28.603 47.8929 29.1438 48.1072 29.5371Z" fill="white" stroke="white" stroke-width="0.2" stroke-miterlimit="10"/>
<path d="M56.8165 31.0807H53.2217V33.0473C53.2217 33.5193 53.0853 33.716 52.7541 33.8143C52.4326 33.9225 51.8676 33.9422 50.9519 33.9323C50.9032 33.7455 50.7765 33.4505 50.6693 33.2735C51.4 33.303 52.0819 33.2932 52.2865 33.2833C52.4813 33.2833 52.5593 33.2243 52.5593 33.0375V31.0807H48.9548V30.4317H52.5593V28.996H49.5393V28.3667H52.5593V26.9998C51.5948 27.108 50.6012 27.167 49.6952 27.2162C49.6659 27.0392 49.588 26.7835 49.5295 26.636C51.5948 26.5377 54.1472 26.3115 55.4624 25.8887L55.9495 26.4098C55.1993 26.636 54.2446 26.8032 53.212 26.931V28.3667H56.3197V28.996H53.212V30.4317H56.8068V31.0807H56.8165Z" fill="white" stroke="white" stroke-width="0.2" stroke-miterlimit="10"/>
<path d="M59.4858 26.646C59.4371 26.7935 59.3494 27.0786 59.3202 27.236C59.1546 28.0423 58.9013 29.6058 58.9013 30.5891C58.9013 31.012 58.9208 31.366 58.9695 31.7888C59.1156 31.3857 59.3105 30.8743 59.4566 30.5302L59.8365 30.8153C59.6125 31.4348 59.3007 32.369 59.2228 32.782C59.1936 32.9098 59.1838 33.077 59.1838 33.1753L59.1936 33.4802L58.5603 33.5195C58.385 32.9 58.2486 31.8872 58.2486 30.7072C58.2486 29.419 58.5311 27.9145 58.6383 27.1967C58.6675 26.9901 58.6967 26.764 58.6967 26.5771L59.4858 26.646ZM61.4732 30.894C61.3952 31.2087 61.3563 31.4643 61.3563 31.7003C61.3563 32.1035 61.6193 32.487 62.8078 32.487C63.5872 32.487 64.2594 32.4182 64.9608 32.2608L64.9705 33.0082C64.4347 33.1163 63.7041 33.1852 62.8078 33.1852C61.3563 33.1852 60.7036 32.6935 60.7036 31.8773C60.7036 31.5627 60.762 31.2185 60.84 30.8448L61.4732 30.894ZM61.1225 27.3146C62.0674 27.472 63.821 27.4425 64.688 27.3146V28.0423C63.7625 28.1406 62.0772 28.1406 61.1225 28.0423V27.3146Z" fill="white" stroke="white" stroke-width="0.2" stroke-miterlimit="10"/>
<path d="M70.5624 26.4097C70.5624 27.9732 70.767 31.3166 74.2059 33.3717C74.0597 33.4799 73.7967 33.7651 73.6798 33.9224C71.5268 32.6047 70.5916 30.6676 70.2019 28.9959C69.5492 31.2871 68.4484 32.8997 66.7046 33.9322C66.5779 33.8044 66.2954 33.5291 66.1201 33.4111C68.0587 32.3884 69.1401 30.6086 69.6759 28.1306L70.0655 28.1896C70.0071 27.7864 69.9681 27.3931 69.9486 27.0587H67.7664V26.3999H70.5624V26.4097Z" fill="white" stroke="white" stroke-width="0.2" stroke-miterlimit="10"/>
<path d="M82.7398 32.5751C82.282 33.0471 81.7364 33.3126 81.1421 33.3126C80.5674 33.3126 80.1777 32.9192 80.1777 32.2014C80.1777 31.2279 80.4992 29.7824 80.4992 28.9367C80.4992 28.4352 80.2459 28.2189 79.8075 28.2189C79.1061 28.2189 78.054 29.0449 77.2551 29.9102C77.2356 30.2839 77.2259 30.6281 77.2259 30.9329C77.2259 31.7294 77.2259 32.2604 77.2649 33.0471C77.2746 33.1946 77.2941 33.4207 77.3136 33.5781H76.5537C76.5634 33.4502 76.5829 33.1946 76.5829 33.0569C76.5927 32.2112 76.5927 31.7786 76.6122 30.8051C76.6122 30.7166 76.6219 30.5986 76.6219 30.4707C76.203 31.1197 75.6282 31.9556 75.2093 32.5456L74.7709 31.9359C75.258 31.3262 76.2517 29.9594 76.6901 29.2711C76.7096 28.9859 76.7291 28.7007 76.7388 28.4254C76.3394 28.4647 75.5893 28.5729 75.0437 28.6516L74.9755 27.9141C75.1704 27.9239 75.336 27.9239 75.5405 27.9042C75.8231 27.8846 76.3296 27.8354 76.7778 27.7666C76.807 27.3536 76.8167 27.0389 76.8167 26.9406C76.8167 26.7341 76.8265 26.5079 76.7778 26.2817L77.6156 26.3112C77.5766 26.5276 77.4987 27.0192 77.4402 27.6289L77.4792 27.6092L77.7325 27.9239C77.6253 28.0812 77.4792 28.3271 77.3428 28.5336C77.3233 28.6909 77.3136 28.8581 77.3038 29.0252C77.976 28.3959 79.0963 27.5601 79.9634 27.5601C80.7817 27.5601 81.1909 28.0222 81.1909 28.7401C81.1909 29.6152 80.8694 31.1296 80.8694 32.0146C80.8694 32.3194 81.0058 32.5456 81.3175 32.5456C81.7559 32.5456 82.2235 32.2604 82.6229 31.8179L82.7398 32.5751Z" fill="white" stroke="white" stroke-width="0.2" stroke-miterlimit="10"/>
<path d="M87.6303 28.8291C87.6303 29.3994 87.6692 30.2549 87.7179 31.0121C88.8285 31.3267 89.7832 31.9364 90.4165 32.5067L89.9976 33.1656C89.4423 32.5952 88.6434 32.0446 87.7472 31.7201C87.7569 31.9462 87.7666 32.1429 87.7666 32.3002C87.7666 33.0181 87.3283 33.6376 86.169 33.6376C84.9805 33.6376 84.0939 33.2442 84.0939 32.2511C84.0939 31.4644 84.7759 30.8056 86.2761 30.8056C86.5197 30.8056 86.7632 30.8252 87.0165 30.8547C86.9775 30.1467 86.9483 29.3404 86.9483 28.8192C86.9483 28.3177 86.9483 27.5901 86.9386 27.2164C86.9288 26.9017 86.8996 26.5182 86.8704 26.3511H87.7082C87.6692 26.5379 87.6497 26.9509 87.64 27.2164C87.6303 27.4524 87.64 27.7671 87.64 28.1112C88.3317 28.0916 89.4325 28.0522 90.2119 27.9441L90.2411 28.6127C89.4715 28.6816 88.3512 28.7406 87.64 28.7504V28.8291H87.6303ZM87.036 31.5234C86.7535 31.4644 86.471 31.4349 86.1885 31.4349C85.2922 31.4349 84.7856 31.7397 84.7856 32.2216C84.7856 32.7132 85.2727 32.9787 86.1008 32.9787C86.7437 32.9787 87.0457 32.6739 87.0457 32.0741C87.0457 31.9364 87.036 31.7496 87.036 31.5234Z" fill="white" stroke="white" stroke-width="0.2" stroke-miterlimit="10"/>
<path d="M95.6381 29.0551C94.6347 29.0551 93.7872 29.3599 93.2709 29.5074C93.0078 29.5763 92.7545 29.6844 92.5402 29.7631L92.3162 28.9469C92.55 28.9174 92.852 28.8683 93.1053 28.8191C93.719 28.6814 94.7127 28.3963 95.7063 28.3963C96.9436 28.3963 97.8593 29.0944 97.8593 30.3433C97.8593 32.2509 96.1837 33.3228 93.9333 33.6669L93.5242 32.9983C95.6284 32.7328 97.1189 31.8969 97.1189 30.3236C97.1189 29.5763 96.5344 29.0551 95.6381 29.0551ZM97.1774 26.7738L97.0702 27.4523C96.1057 27.3933 94.3522 27.2163 93.3683 27.0393L93.4852 26.3706C94.4399 26.5869 96.3201 26.7639 97.1774 26.7738Z" fill="white" stroke="white" stroke-width="0.2" stroke-miterlimit="10"/>
<defs>
<linearGradient id="paint0_linear" x1="21.9789" y1="9.39873" x2="5.47693" y2="25.7473" gradientUnits="userSpaceOnUse">
<stop stop-color="#00A0FF"/>
<stop offset="0.00657445" stop-color="#00A1FF"/>
<stop offset="0.2601" stop-color="#00BEFF"/>
<stop offset="0.5122" stop-color="#00D2FF"/>
<stop offset="0.7604" stop-color="#00DFFF"/>
<stop offset="1" stop-color="#00E3FF"/>
</linearGradient>
<linearGradient id="paint1_linear" x1="33.7032" y1="20.5015" x2="10.1307" y2="20.5015" gradientUnits="userSpaceOnUse">
<stop stop-color="#FFE000"/>
<stop offset="0.4087" stop-color="#FFBD00"/>
<stop offset="0.7754" stop-color="#FFA500"/>
<stop offset="1" stop-color="#FF9C00"/>
</linearGradient>
<linearGradient id="paint2_linear" x1="24.9283" y1="22.7578" x2="2.55023" y2="44.9278" gradientUnits="userSpaceOnUse">
<stop stop-color="#FF3A44"/>
<stop offset="1" stop-color="#C31162"/>
</linearGradient>
<linearGradient id="paint3_linear" x1="7.85104" y1="1.00663" x2="17.8438" y2="10.9064" gradientUnits="userSpaceOnUse">
<stop stop-color="#32A071"/>
<stop offset="0.0685" stop-color="#2DA771"/>
<stop offset="0.4762" stop-color="#15CF74"/>
<stop offset="0.8009" stop-color="#06E775"/>
<stop offset="1" stop-color="#00F076"/>
</linearGradient>
</defs>
</svg>
