<svg id="Capa_1" enable-background="new 0 0 512.052 512.052" height="512" viewBox="0 0 512.052 512.052" width="512" xmlns="http://www.w3.org/2000/svg"><g><g><path d="m255.624.026-35.228 104.796c-6.6 19.634-9.966 40.211-9.966 60.925v73.638h45.677l10-96.358-10-143h-.483z" fill="#009859"/><path d="m301.572 165.746c0-20.714-3.366-41.29-9.966-60.925l-35.229-104.795h-.271v239.358h45.465v-73.638z" fill="#007745"/></g><path d="m161.571 308.083v-47.381c0-15.857 10.266-29.889 25.379-34.69l59.766-18.984c27.99-8.891 51.218-28.681 64.442-54.904l68.802-136.439h1.213v134.673c0 87.109-70.616 157.725-157.725 157.725z" fill="#009859"/><g><path d="m200.802 152.124-68.802-136.439h-1.213v134.673c0 76.001 53.756 139.44 125.318 154.386l10-65.36-10-35.724c-23.883-10.006-43.548-28.226-55.303-51.536z" fill="#9ce77a"/><path d="m298.542 217.605-33.298-10.577c-3.109-.987-6.155-2.117-9.139-3.367v101.083c10.46 2.185 21.298 3.339 32.407 3.339h61.877v-19.611c0-32.394-20.972-61.06-51.847-70.867z" fill="#66be61"/></g><path d="m217.773 342.619v-16.886c0-16.654 10.782-31.392 26.654-36.434l62.769-19.938c29.396-9.338 53.792-30.123 67.68-57.663l72.26-143.296h1.274v141.441c0 91.487-74.165 165.652-165.652 165.652z" fill="#007745"/><g><path d="m204.804 269.361c-29.396-9.338-53.792-30.123-67.68-57.663l-72.261-143.296h-1.274v141.441c0 91.487 74.165 165.652 165.652 165.652h26.864l10-48.469-10-41.369z" fill="#66be61"/><path d="m294.228 335.068c0-22.213-14.381-41.87-35.552-48.595l-2.571-.816v89.838h38.122v-40.427z" fill="#009859"/></g><path d="m281.459 364.88 73.697-11.202c34.003-5.168 63.584-26.055 79.832-56.369l75.799-141.415h1.213v146.806c0 80.408-65.184 145.592-145.592 145.592l-146.806 10v-21.442c0-35.981 26.285-66.563 61.857-71.97z" fill="#009859"/><g><path d="m238.241 366.05-81.397-12.372c-34.003-5.168-63.584-26.055-79.832-56.369l-75.799-141.416h-1.213v146.806c0 80.408 65.184 145.592 145.592 145.592l110.513 7.528 10-36.793-10-47.482c-5.537-2.642-11.528-4.531-17.864-5.494z" fill="#9ce77a"/><path d="m292.398 429.061c0-25.093-14.611-47.174-36.293-57.517v84.276l36.293 2.472z" fill="#66be61"/></g><path d="m.052 448.291h256.052l10 31.868-10 31.867h-256.052z" fill="#ffe48d"/><path d="m256.104 448.291h255.948v63.734h-255.948z" fill="#f9cc74"/></g></svg>