<svg id="flat" height="512" viewBox="0 0 512 512" width="512" xmlns="http://www.w3.org/2000/svg"><path d="m256 24h64a0 0 0 0 1 0 0v16a64 64 0 0 1 -64 64h-64a0 0 0 0 1 0 0v-16a64 64 0 0 1 64-64z" fill="#b9cd2a"/><path d="m180.29492 118.79688-7.15625-14.31055 56.65625-28.32813a52.72763 52.72763 0 0 0 26.61524-30.6875l15.17968 5.0586a68.62144 68.62144 0 0 1 -34.63867 39.93945z" fill="#a2ba18"/><circle cx="336" cy="240" fill="#f78e00" r="152"/><circle cx="176" cy="280" fill="#ffa100" r="152"/><path d="m160 184v-88h32v72z" fill="#b1712c"/><path d="m360 152v-8a16 16 0 0 1 16-16 16 16 0 0 1 16 16v32z" fill="#b1712c"/><path d="m488 328v8a152 152 0 0 1 -304 0v-8h128a33.944 33.944 0 0 0 48 0z" fill="#ffb401"/><path d="m151.0293 192h-23.0293v-16h23.0293a32.75252 32.75252 0 0 0 23.31347-9.65723 48.65229 48.65229 0 0 1 34.62793-14.34277h15.0293v16h-15.0293a32.75252 32.75252 0 0 0 -23.31347 9.65723 48.65229 48.65229 0 0 1 -34.62793 14.34277z" fill="#f78e00"/><path d="m456 328v8a120 120 0 0 1 -240 0v-8h96a33.944 33.944 0 0 0 48 0z" fill="#ffd873"/><g fill="#ffcc4d"><path d="m328 392h16v32h-16z"/><path d="m368 381.282h15.999v32h-15.999z" transform="matrix(.866 -.5 .5 .866 -148.266 241.225)"/><path d="m280 389.283h32v15.999h-32z" transform="matrix(.5 -.866 .866 .5 -196.058 454.97)"/><path d="m397.283 352h15.999v32h-15.999z" transform="matrix(.5 -.866 .866 .5 -116.056 534.985)"/><path d="m250.718 360h32v15.999h-32z" transform="matrix(.866 -.5 .5 .866 -148.272 182.674)"/></g><path d="m424 184h-23.0293a48.65229 48.65229 0 0 1 -34.62793-14.34277 32.75252 32.75252 0 0 0 -23.31347-9.65723h-15.0293v-16h15.0293a48.65229 48.65229 0 0 1 34.62793 14.34277 32.75252 32.75252 0 0 0 23.31347 9.65723h23.0293z" fill="#e67a00"/></svg>